<?xml version="1.0" encoding="UTF-8"?>
<svg xmlns="http://www.w3.org/2000/svg" xmlns:xlink="http://www.w3.org/1999/xlink" xmlns:svgjs="http://svgjs.dev/svgjs" version="1.1" viewBox="0 0 200 200">
  <!-- Generator: Adobe Illustrator 29.1.0, SVG Export Plug-In . SVG Version: 2.1.0 Build 142)  -->
  <defs>
    <style>
      .st0 {
        isolation: isolate;
      }

      .st1 {
        fill: #e6257a;
      }

      .st2 {
        mix-blend-mode: difference;
        opacity: .7;
      }

      .st3 {
        fill: url(#Degradado_sin_nombre_49);
      }

      .st4 {
        fill: url(#Degradado_sin_nombre_38);
      }

      .st5 {
        fill: url(#Degradado_sin_nombre_58);
      }

      .st6 {
        fill: #e73b83;
      }
    </style>
    <linearGradient id="Degradado_sin_nombre_38" data-name="Degradado sin nombre 38" x1="6.6" y1="100.6" x2="192.5" y2="100.6" gradientTransform="translate(0 0)" gradientUnits="userSpaceOnUse">
      <stop offset=".5" stop-color="#e73b83"/>
      <stop offset="1" stop-color="#f39724"/>
    </linearGradient>
    <linearGradient id="Degradado_sin_nombre_49" data-name="Degradado sin nombre 49" x1="32.3" y1="100.6" x2="157.5" y2="100.6" gradientTransform="translate(0 0)" gradientUnits="userSpaceOnUse">
      <stop offset=".5" stop-color="#e73b83"/>
      <stop offset="1" stop-color="#f39724"/>
    </linearGradient>
    <linearGradient id="Degradado_sin_nombre_58" data-name="Degradado sin nombre 58" x1="7.5" y1="100.4" x2="193.4" y2="100.4" gradientTransform="translate(0 0)" gradientUnits="userSpaceOnUse">
      <stop offset="0" stop-color="#e73b83"/>
      <stop offset="0" stop-color="#e84479" stop-opacity=".9"/>
      <stop offset="0" stop-color="#eb5963" stop-opacity=".7"/>
      <stop offset=".2" stop-color="#ed6c4f" stop-opacity=".5"/>
      <stop offset=".2" stop-color="#ef7b40" stop-opacity=".3"/>
      <stop offset=".3" stop-color="#f18733" stop-opacity=".2"/>
      <stop offset=".4" stop-color="#f2902b" stop-opacity="0"/>
      <stop offset=".4" stop-color="#f29525" stop-opacity="0"/>
      <stop offset=".5" stop-color="#f39724" stop-opacity="0"/>
    </linearGradient>
  </defs>
  <g class="st0">
    <g id="Capa_1">
      <g>
        <path class="st4" d="M164,31.9C146.5,14.4,122.2,3.5,95.4,3.5h-52c-15.4,0-28.6,9.6-33.8,23.1-1.6,4.1-2.5,8.5-2.5,13.1,0,3.1.4,6.1,1.1,8.9,1.1,4.3,2.9,8.3,5.4,11.8,3.1,4.4,33,34.5,33,34.5,3.1,3.1,3.1,8.2,0,11.3l-23.8,23.5s-2.4,2.5-4.1,4c0,0,0,0,0,0l-2.1,2c-2,2.1-3.8,4.5-5.2,7.1s-2.9,6.1-3.7,9.4c-.7,2.8-1,5.6-1,8.6,0,4.8.9,9.3,2.6,13.5,5.4,13.6,18.6,23.1,34.1,23.1h52.2c53.6,0,97.1-43.5,97.1-97.1,0-26.8-10.9-51.1-28.4-68.7ZM169.2,117.3c-1.2,5.4-3.1,10.5-5.4,15.4-1.6,3.2-3.3,6.3-5.3,9.3-.7,1-1.3,1.9-2.1,2.9-2.1,2.9-4.4,5.5-7,8.1-.8.8-1.7,1.7-2.6,2.4-.9.8-1.8,1.6-2.7,2.3-.9.7-1.9,1.5-2.8,2.2-1.9,1.4-3.9,2.8-5.9,4-1,.6-2,1.2-3.1,1.8-1,.6-2.1,1.1-3.2,1.6-1.6.8-3.3,1.5-4.9,2.2-1.1.5-2.3.9-3.4,1.2-.6.2-1.1.4-1.7.6-1.2.4-2.3.7-3.5,1-5.9,1.5-12.1,2.3-18.5,2.3H31c-2.5-4.9-3.8-10.5-3.8-16.3s0-.7,0-1.1l4.7-4.7,22.9-22.6,23.9-23.6c3.2-3.1,3.2-8.2,0-11.3l-23.1-23.5-22.2-22.6-6-6.1h0c0-5.8,1.3-11.2,3.7-16h66c40.8,0,73.9,33.1,73.9,73.9,0,4.6-.4,9-1.2,13.4-.2,1.1-.4,2.2-.7,3.3Z"/>
        <path class="st3" d="M145.5,100.6c0,28.6-23.2,51.8-51.8,51.8h-61.4s22.9-22.6,22.9-22.6h39.8c15.5,0,28-12.6,28-28v-2.4c0-15.5-12.5-28-28-28h-38.9s-22.2-22.6-22.2-22.6h59.8c28.6,0,51.8,23.2,51.8,51.8Z"/>
        <g class="st2">
          <path class="st5" d="M165,31.8C147.4,14.2,123.2,3.3,96.3,3.3h-52c-15.4,0-28.6,9.6-33.8,23.1-1.6,4.1-2.5,8.5-2.5,13.1,0,3.1.4,6.1,1.1,8.9,1.1,4.3,2.9,8.3,5.4,11.8,3.1,4.4,33,34.5,33,34.5,3.1,3.1,3.1,8.2,0,11.3l-23.8,23.5s-2.4,2.5-4.1,4c0,0,0,0,0,0l-2.1,2c-2,2.1-3.8,4.5-5.2,7.1-1.6,2.9-2.9,6.1-3.7,9.4-.7,2.8-1,5.6-1,8.6,0,4.8.9,9.3,2.6,13.5,5.4,13.6,18.6,23.1,34.1,23.1h52.2c53.6,0,97.1-43.5,97.1-97.1,0-26.8-10.9-51.1-28.4-68.7ZM79.8,94.7l-23.1-23.5h38.9c15.5,0,28,12.6,28,28v2.4c0,15.5-12.5,28-28,28h-39.8s23.9-23.6,23.9-23.6c3.2-3.1,3.2-8.2,0-11.3ZM170.2,117.1c-1.2,5.4-3.1,10.5-5.4,15.4-1.6,3.2-3.3,6.3-5.3,9.3-.7,1-1.3,1.9-2.1,2.9-2.1,2.9-4.4,5.5-7,8.1-.8.8-1.7,1.7-2.6,2.4-.9.8-1.8,1.6-2.7,2.3-.9.7-1.9,1.5-2.8,2.2-1.9,1.4-3.9,2.8-5.9,4-1,.6-2,1.2-3.1,1.8-1,.6-2.1,1.1-3.2,1.6-1.6.8-3.3,1.5-4.9,2.2-1.1.5-2.3.9-3.4,1.2-.6.2-1.1.4-1.7.6-1.2.4-2.3.7-3.5,1-5.9,1.5-12.1,2.3-18.5,2.3H32c-2.5-4.9-3.8-10.5-3.8-16.3,0-.4,0-.7,0-1.1l4.7-4.7h61.4c28.6,0,51.8-23.2,51.8-51.8,0-28.6-23.2-51.8-51.8-51.8h-59.8s-6-6.1-6-6.1h0c0-5.8,1.3-11.2,3.7-16h66c40.8,0,73.9,33.1,73.9,73.9,0,4.6-.4,9-1.2,13.4-.2,1.1-.4,2.2-.7,3.3Z"/>
        </g>
        <g>
          <path class="st1" d="M75.9,3.5h-1.6c.3,0,.7,0,1,0,.2,0,.4,0,.6,0Z"/>
          <path class="st6" d="M49.3,64.2c-7-6.4-18.5-15.5-18.5-25.5,0-19.4,23.4-35.2,43.6-35.2h-30.6c-15.4,0-28.6,9.6-33.8,23.1-1.6,4.1-2.5,8.5-2.5,13.1,0,3.1.4,6.1,1.1,8.9,1.1,4.3,2.9,8.3,5.4,11.8,3.1,4.4,33,34.5,33,34.5,3.1,3.1,3.1,8.2,0,11.3l-23.8,23.5s-2.4,2.5-4.1,4c0,0,0,0,0,0l-2.1,2c-2,2.1-3.8,4.5-5.2,7.1-1.6,2.9-2.9,6.1-3.7,9.4-.7,2.8-1,5.6-1,8.6,0,4.8.9,9.3,2.6,13.5,5.4,13.6,18.6,23.1,34.1,23.1h29.5c-20.2,0-43.6-15.7-43.6-35.2,0-10.2,11.5-19.3,18.7-25.7.3-.3.5-.6.8-.9l2.1-2s0,0,0,0c1.7-1.5,4.1-4,4.1-4l23.8-23.5c3.1-3.1,3.2-8.2,0-11.3,0,0-21.4-21.5-29.8-30.8Z"/>
        </g>
      </g>
    </g>
  </g>
</svg>