<?xml version="1.0" encoding="UTF-8"?>
<svg xmlns="http://www.w3.org/2000/svg" version="1.1" viewBox="0 0 144 33.1">
  <!-- Generator: Adobe Illustrator 29.1.0, SVG Export Plug-In . SVG Version: 2.1.0 Build 142)  -->
  <defs>
    <style>
      .st0 {
        opacity: .1;
      }

      .st0, .st1, .st2, .st3, .st4 {
        fill-opacity: .3;
      }

      .st1 {
        opacity: .5;
      }

      .st2 {
        opacity: .7;
      }

      .st3 {
        opacity: .8;
      }

      .st5 {
        fill: #595959;
        mix-blend-mode: multiply;
        opacity: .7;
      }

      .st6 {
        fill: #d4d4d4;
      }

      .st7 {
        fill: #d8d8d8;
      }

      .st8 {
        isolation: isolate;
      }

      .st9 {
        fill: #686968;
      }

      .st10 {
        opacity: .8;
      }

      .st11 {
        opacity: .5;
      }

      .st12 {
        display: none;
      }

      .st13 {
        fill: #f7f6f5;
      }

      .st14 {
        fill: #434343;
      }
    </style>
  </defs>
  <g class="st8">
    <g id="Capa_1">
      <g class="st12">
        <g class="st10">
          <polygon class="st5" points="9.4 24.9 9.4 24.9 9.4 24.9 9.4 24.9"/>
        </g>
        <g>
          <path class="st4" d="M55.3,17.7h-.6v-7.2s0,0,0,0h0c.1,0,.3,0,.4.1,0,0,.1.2.1.4v6.7Z"/>
          <path class="st4" d="M59.9,12.6v.5h-1.7v3.2c0,.7.3,1,.8,1s.5,0,.7-.2c0,0,.2-.1.2-.2.2.2.2.3.2.4s0,.2-.2.3c-.1.1-.3.2-.5.3-.2,0-.4,0-.6,0-.7,0-1.1-.3-1.2-.8,0-.2-.1-.5-.1-.9v-5.1s0,0,0,0c.2,0,.3,0,.4.1,0,0,.1.2.1.4v1h1.7Z"/>
          <path class="st4" d="M65.8,17.7c-.1,0-.3,0-.4,0-.2,0-.4,0-.6-.2-.1-.1-.2-.3-.2-.5-.5.5-1.1.7-1.7.7s-.9-.1-1.2-.4c-.3-.3-.4-.6-.4-1.1s.1-.7.3-1c.2-.3.6-.5,1-.6.4-.1.9-.2,1.5-.2s.2,0,.2,0c0,0,.2,0,.2,0v-.3c0-.4,0-.7-.3-.9-.2-.2-.5-.3-1-.3s-.6,0-.8.1c-.3,0-.5.2-.7.3h0c-.1-.1-.2-.3-.2-.4s0-.2.3-.3c.2-.1.4-.2.7-.2.3,0,.6,0,.8,0,.6,0,1.1.1,1.4.4.3.3.4.8.4,1.4v2.2c0,.2,0,.4,0,.5,0,.1,0,.2.2.3,0,0,.2.1.4.1v.2ZM64.6,15s0,0-.1,0h-.1c-1.6,0-2.4.4-2.4,1.3s0,.6.3.7c.2.2.4.3.8.3s.5,0,.8-.2c.2-.1.5-.2.6-.4s.2-.3.2-.4v-1.4Z"/>
          <path class="st4" d="M67.5,10s0,0,.1,0c.2,0,.3,0,.4.1,0,0,.1.2.1.4v6.1c0,.2,0,.3,0,.4,0,.1,0,.2.2.2,0,0,.2,0,.3,0v.2c-.1,0-.3,0-.4,0s-.3,0-.4-.1c-.1,0-.2-.2-.2-.3,0-.1,0-.4,0-.7v-6.6Z"/>
          <path class="st4" d="M71.2,11.3c0,.1,0,.3-.1.4,0,0-.2.1-.3.1s-.2,0-.3-.1c0,0-.1-.2-.1-.4s0-.3.1-.4c0,0,.2-.1.3-.1s.2,0,.3.1c0,0,.1.2.1.4ZM71.2,17.7c-.2,0-.3,0-.4,0-.1,0-.2-.2-.2-.3,0-.1,0-.4,0-.7v-4h0c.4,0,.6.2.6.6v3.5c0,.2,0,.3,0,.4,0,.1,0,.2.2.3,0,0,.2,0,.4.1v.2c-.1,0-.3,0-.4,0Z"/>
          <path class="st4" d="M77.5,17.7c-.1,0-.3,0-.4,0-.2,0-.4,0-.6-.2-.1-.1-.2-.3-.2-.5-.5.5-1.1.7-1.7.7s-.9-.1-1.2-.4c-.3-.3-.4-.6-.4-1.1s.1-.7.3-1c.2-.3.6-.5,1-.6.4-.1.9-.2,1.5-.2s.2,0,.2,0c0,0,.2,0,.2,0v-.3c0-.4,0-.7-.3-.9-.2-.2-.5-.3-1-.3s-.6,0-.8.1c-.3,0-.5.2-.7.3h0c-.1-.1-.2-.3-.2-.4s0-.2.3-.3c.2-.1.4-.2.7-.2.3,0,.6,0,.8,0,.6,0,1.1.1,1.4.4.3.3.4.8.4,1.4v2.2c0,.2,0,.4,0,.5,0,.1,0,.2.2.3,0,0,.2.1.4.1v.2ZM76.3,15s0,0-.1,0h-.1c-1.6,0-2.4.4-2.4,1.3s0,.6.3.7c.2.2.4.3.8.3s.5,0,.8-.2c.2-.1.5-.2.6-.4s.2-.3.2-.4v-1.4Z"/>
          <path class="st4" d="M86.3,12.4c0,1.6-1,2.3-2.9,2.3h-.9v2.9h-.6v-7.2c.6,0,1.2,0,1.6,0,.9,0,1.6.2,2.1.5.5.3.7.8.7,1.5ZM85.7,12.5c0-.5-.2-.9-.5-1.2s-.9-.4-1.6-.4-.7,0-1,0v3.3h1c.7,0,1.2-.1,1.6-.4.3-.3.5-.7.5-1.3Z"/>
          <path class="st4" d="M91.5,17.1c0,.1,0,.2-.3.4-.2.1-.4.2-.7.3-.3,0-.5.1-.8.1-.8,0-1.4-.2-1.8-.7-.4-.5-.6-1.1-.6-2s0-1,.3-1.4c.2-.4.5-.7.8-.9s.7-.3,1.2-.3c.6,0,1.1.2,1.5.6.3.4.5.9.5,1.6s0,.4,0,.6h-3.5c0,.7.2,1.2.5,1.5.3.3.7.5,1.3.5s.6,0,.9-.2.5-.3.6-.5c.2.2.2.3.2.4ZM91,14.8c0-1.2-.5-1.7-1.4-1.7s-.8.2-1.1.5c-.3.3-.4.7-.4,1.3h2.9Z"/>
          <path class="st4" d="M94.2,13.2c.1-.2.3-.4.5-.5.2-.1.4-.2.7-.2s.4,0,.5,0c.1,0,.2.2.2.3s0,.1,0,.2c0,0,0,.2-.1.2,0,0-.2-.2-.3-.2-.1,0-.2,0-.4,0-.3,0-.5,0-.7.3-.2.2-.3.4-.3.6v3.7h-.6v-5h0c.2,0,.3,0,.4.2.1.1.2.2.2.4Z"/>
          <path class="st4" d="M104.7,10.4s0,0,0,.1c0,.1,0,.2-.1.3,0,0-.2.1-.4.1h-1.9v6.7h-.6v-6.7h-2.5s0,0,0,0c0-.1,0-.3.1-.3,0,0,.2-.1.4-.1h5.1Z"/>
          <path class="st4" d="M109,17.7h-.6v-.6c-.2.2-.5.4-.8.5-.3.1-.7.2-1,.2s-.8,0-1.1-.3c-.3-.2-.5-.5-.5-.8,0-.2,0-.6,0-1v-3.1h0c.4,0,.6.2.6.6v2.5c0,.3,0,.6.1.8.1.5.5.7,1.2.7s.5,0,.8-.1c.2,0,.4-.2.6-.3.2-.1.2-.2.2-.3v-3.8h0c.4,0,.6.2.6.6v4.4Z"/>
          <path class="st4" d="M113.5,12.6v.5h-1.7v3.2c0,.7.3,1,.8,1s.5,0,.7-.2c0,0,.2-.1.2-.2.2.2.2.3.2.4s0,.2-.2.3c-.1.1-.3.2-.5.3-.2,0-.4,0-.6,0-.7,0-1.1-.3-1.2-.8,0-.2-.1-.5-.1-.9v-5.1s0,0,0,0c.2,0,.3,0,.4.1,0,0,.1.2.1.4v1h1.7Z"/>
          <path class="st4" d="M117.7,12.6v.5h-1.7v3.2c0,.7.3,1,.8,1s.5,0,.7-.2c0,0,.2-.1.2-.2.2.2.2.3.2.4s0,.2-.2.3c-.1.1-.3.2-.5.3-.2,0-.4,0-.6,0-.7,0-1.1-.3-1.2-.8,0-.2-.1-.5-.1-.9v-5.1s0,0,0,0c.2,0,.3,0,.4.1,0,0,.1.2.1.4v1h1.7Z"/>
          <path class="st4" d="M120.3,11.3c0,.1,0,.3-.1.4,0,0-.2.1-.3.1s-.2,0-.3-.1c0,0-.1-.2-.1-.4s0-.3.1-.4c0,0,.2-.1.3-.1s.2,0,.3.1c0,0,.1.2.1.4ZM120.2,17.7c-.2,0-.3,0-.4,0-.1,0-.2-.2-.2-.3,0-.1,0-.4,0-.7v-4h0c.4,0,.6.2.6.6v3.5c0,.2,0,.3,0,.4,0,.1,0,.2.2.3,0,0,.2,0,.4.1v.2c-.1,0-.3,0-.4,0Z"/>
          <g class="st11">
            <g>
              <path d="M54.7,24.4h.3v1.9h.9v.2h-1.2v-2.1Z"/>
              <path d="M57.1,24.6c0,0,0,.2-.2.2s-.2,0-.2-.2,0-.2.2-.2.2,0,.2.2ZM56.7,26.5v-1.5h.3v1.5h-.3Z"/>
              <path d="M58.1,25.4c0-.2,0-.3,0-.4h.2v.3h0c0-.1.3-.3.5-.3s.5.1.5.6v.9h-.3v-.9c0-.2,0-.4-.4-.4s-.3.1-.4.3c0,0,0,0,0,.1v.9h-.3v-1.1Z"/>
              <path d="M61.7,25c0,.1,0,.2,0,.4v.9c0,.3,0,.6-.2.7-.1.1-.4.2-.6.2s-.4,0-.5-.1v-.2c.2,0,.3.1.5.1.3,0,.5-.1.5-.5v-.2h0c0,.1-.2.3-.5.3-.4,0-.6-.3-.6-.7s.3-.8.7-.8.4.1.5.3h0v-.2h.3ZM61.4,25.6s0,0,0-.1c0-.2-.2-.3-.4-.3s-.5.2-.5.6.2.5.4.5.3-.1.4-.3c0,0,0-.1,0-.1v-.3Z"/>
              <path d="M64,26.1c0,.2,0,.3,0,.4h-.2v-.2h0c0,.1-.2.3-.5.3s-.5-.1-.5-.7v-.9h.3v.8c0,.3,0,.5.3.5s.3-.1.4-.3c0,0,0,0,0-.1v-.9h.3v1.1Z"/>
              <path d="M65.9,26.5v-.2h0c0,.1-.2.2-.5.2-.3,0-.5-.2-.5-.4,0-.4.3-.6.9-.6h0c0-.2,0-.4-.3-.4s-.3,0-.4.1v-.2c0,0,.2-.1.4-.1.5,0,.6.3.6.6v.6c0,.1,0,.3,0,.4h-.3ZM65.9,25.7c-.3,0-.6,0-.6.3s.1.3.3.3.3-.1.4-.3c0,0,0,0,0,0v-.3Z"/>
              <path d="M68.6,25.8c0,.4.2.5.5.5s.3,0,.4,0v.2c0,0-.2,0-.5,0-.5,0-.7-.3-.7-.8s.3-.8.7-.8.6.4.6.7,0,.1,0,.1h-1.1ZM69.4,25.6c0-.2,0-.4-.4-.4s-.4.3-.4.4h.8Z"/>
              <path d="M72.9,26.4c0,0-.2,0-.4,0-.5,0-.8-.3-.8-.8s.3-.8.8-.8.3,0,.4,0v.2c-.1,0-.2,0-.4,0-.3,0-.5.3-.5.6s.2.6.5.6.3,0,.3,0v.2Z"/>
              <path d="M75.1,26.1c0,.2,0,.3,0,.4h-.2v-.2h0c0,.1-.2.3-.5.3s-.5-.1-.5-.7v-.9h.3v.8c0,.3,0,.5.3.5s.3-.1.4-.3c0,0,0,0,0-.1v-.9h.3v1.1Z"/>
              <path d="M76.1,24.3h.3v2.2h-.3v-2.2Z"/>
              <path d="M77.8,24.5v.4h.4v.2h-.4v.8c0,.2,0,.3.2.3s.1,0,.2,0v.2s-.1,0-.2,0-.2,0-.3-.1c0,0-.1-.2-.1-.4v-.8h-.2v-.2h.2v-.4h.3Z"/>
              <path d="M80.4,26.1c0,.2,0,.3,0,.4h-.2v-.2h0c0,.1-.2.3-.5.3s-.5-.1-.5-.7v-.9h.3v.8c0,.3,0,.5.3.5s.3-.1.4-.3c0,0,0,0,0-.1v-.9h.3v1.1Z"/>
              <path d="M81.4,25.5c0-.2,0-.3,0-.5h.2v.3h0c0-.2.2-.3.4-.3s0,0,0,0v.3s0,0,0,0c-.2,0-.3.1-.4.4,0,0,0,0,0,.1v.8h-.3v-1Z"/>
              <path d="M83.9,26.5v-.2h0c0,.1-.2.2-.5.2-.3,0-.5-.2-.5-.4,0-.4.3-.6.9-.6h0c0-.2,0-.4-.3-.4s-.3,0-.4.1v-.2c0,0,.2-.1.4-.1.5,0,.6.3.6.6v.6c0,.1,0,.3,0,.4h-.3ZM83.8,25.7c-.3,0-.6,0-.6.3s.1.3.3.3.3-.1.4-.3c0,0,0,0,0,0v-.3Z"/>
              <path d="M86.7,24.6c0,0,0,.2-.2.2s-.2,0-.2-.2,0-.2.2-.2.2,0,.2.2ZM86.4,26.5v-1.5h.3v1.5h-.3Z"/>
              <path d="M88,24.5v.4h.4v.2h-.4v.8c0,.2,0,.3.2.3s.1,0,.2,0v.2s-.1,0-.2,0-.2,0-.3-.1c0,0-.1-.2-.1-.4v-.8h-.2v-.2h.2v-.4h.3Z"/>
              <path d="M90.2,26.5v-.2h0c0,.1-.2.2-.5.2-.3,0-.5-.2-.5-.4,0-.4.3-.6.9-.6h0c0-.2,0-.4-.3-.4s-.3,0-.4.1v-.2c0,0,.2-.1.4-.1.5,0,.6.3.6.6v.6c0,.1,0,.3,0,.4h-.3ZM90.1,25.7c-.3,0-.6,0-.6.3s.1.3.3.3.3-.1.4-.3c0,0,0,0,0,0v-.3Z"/>
              <path d="M91.4,24.3h.3v2.2h-.3v-2.2Z"/>
              <path d="M93.1,24.6c0,0,0,.2-.2.2s-.2,0-.2-.2,0-.2.2-.2.2,0,.2.2ZM92.8,26.5v-1.5h.3v1.5h-.3Z"/>
              <path d="M94.9,26.5v-.2h0c0,.1-.2.2-.5.2-.3,0-.5-.2-.5-.4,0-.4.3-.6.9-.6h0c0-.2,0-.4-.3-.4s-.3,0-.4.1v-.2c0,0,.2-.1.4-.1.5,0,.6.3.6.6v.6c0,.1,0,.3,0,.4h-.3ZM94.9,25.7c-.3,0-.6,0-.6.3s.1.3.3.3.3-.1.4-.3c0,0,0,0,0,0v-.3Z"/>
              <path d="M96.2,25.4c0-.2,0-.3,0-.4h.2v.3h0c0-.1.3-.3.5-.3s.5.1.5.6v.9h-.3v-.9c0-.2,0-.4-.4-.4s-.3.1-.4.3c0,0,0,0,0,.1v.9h-.3v-1.1Z"/>
              <path d="M99.4,26.5v-.2h0c0,.1-.2.2-.5.2-.3,0-.5-.2-.5-.4,0-.4.3-.6.9-.6h0c0-.2,0-.4-.3-.4s-.3,0-.4.1v-.2c0,0,.2-.1.4-.1.5,0,.6.3.6.6v.6c0,.1,0,.3,0,.4h-.3ZM99.3,25.7c-.3,0-.6,0-.6.3s.1.3.3.3.3-.1.4-.3c0,0,0,0,0,0v-.3Z"/>
            </g>
          </g>
          <rect class="st2" x="54.6" y="21" width="21.1" height="1"/>
          <rect class="st4" x="99.6" y="21" width="21.1" height="1"/>
          <rect class="st0" x="75.7" y="21" width="23.9" height="1"/>
          <path class="st3" d="M47.3,7.6c-.2.5-.3,1.1-.5,1.7-3.1,11.6-2.1,9.6-3.4,12.6,0,.2-.2.4-.3.6,0,0,0,0,0,0,0,0,0,0,0,0-.4.7-.9,1.4-1.4,1.9,0,0,0,0-.1.1.2.1.5.2.7.2,2.3.3,4.1-1.2,4.9-3.1,1-2.3.3-.8,2.6-9.5,1.1-4.2,2.1-4.5,2.9-4.4-.6-1-3.7-1.4-5.3-.2Z"/>
          <path class="st3" d="M34,24.4c-.6-.6-1.1-1.2-1.4-1.9,0,0,0,0,0,0,0,0,0,0,0,0,0-.2-.2-.4-.3-.6-1.3-3-.4-1-3.4-12.6-.2-.7-.4-1.3-.6-1.9-1.7-.9-4.4-.5-5,.4.7,0,1.8.2,2.9,4.4,2.3,8.7,1.6,7.2,2.6,9.5.8,1.9,2.6,3.4,4.9,3.1.2,0,.4,0,.6-.1,0,0-.1-.1-.2-.2Z"/>
          <path class="st13" d="M37,18.9c.3,1,.6,1.7.9,2.4.3-.6.6-1.4.9-2.4,1.4-5.1,2-9.4,2.9-12.3-1.2-.4-2.4-.6-3.7-.6s-2.7.2-3.9.7c.9,2.9,1.4,7.2,2.9,12.3Z"/>
          <path class="st13" d="M47.2,21.6c-.8,1.9-2.6,3.4-4.9,3.1-.3,0-.5-.1-.7-.2,0,0,0,0,.1-.1-.8.8-1.9,1.5-2.9,1.6-.3,0-.6,0-1,0-.3,0-.6,0-1,0-1-.1-1.9-.7-2.7-1.4-.2,0-.4.1-.6.1-2.3.3-4.1-1.2-4.9-3.1-.9-2.1-.4-1-2.1-7.7-.5,1.3-.7,2.6-.7,4.1,0,6.7,5.4,12,12,12s12-5.4,12-12-.2-2.8-.7-4.1c-1.7,6.7-1.2,5.6-2.1,7.7Z"/>
          <path class="st7" d="M38,30.6c-6.9,0-12.5-5.6-12.6-12.4,0,0,0,0,0,.1,0,6.9,5.6,12.6,12.6,12.6s12.6-5.6,12.6-12.6,0,0,0-.1c0,6.9-5.7,12.4-12.6,12.4Z"/>
          <path class="st4" d="M34.1,6.6c1.2-.4,2.5-.7,3.9-.7s2.5.2,3.7.6c0-.2.1-.3.2-.5-1.2-.4-2.5-.6-3.9-.6s-2.8.2-4.1.7c0,.2.1.3.2.5Z"/>
          <path class="st4" d="M49.3,13.9c.5,1.3.7,2.6.7,4.1,0,6.6-5.4,12-12,12s-12-5.4-12-12,.2-2.8.7-4.1c0-.3-.1-.6-.2-.9-.6,1.5-1,3.2-1,4.9,0,6.9,5.6,12.6,12.6,12.6s12.6-5.6,12.6-12.6-.4-3.4-1-4.9c0,.3-.2.6-.2.9Z"/>
          <path class="st2" d="M42.7,4.1c-1.6,2.5-2,7.5-3.7,13.8,0,.2,0,.4-.1.5,0,.1,0,.2-.1.4,0,0,0,0,0,0,0,0,0,.1,0,.2,0,.3-.2.6-.3.8,0,.2-.1.3-.2.5,0,.1,0,.2-.1.3,0,.2-.2.4-.3.5,0,0,0,0,0,0-1.5,2.7-3.4,2.8-4.8,2,.3.4.6.8.9,1.2.8.8,1.9,1.5,2.9,1.6.3,0,.6,0,1,0,.3,0,.6,0,1,0,1-.1,2-.7,2.9-1.6.6-.6,1.1-1.2,1.4-1.9,0,0,0,0,0,0,0,0,0,0,0,0,0-.2.2-.4.3-.6,1.3-3,.4-1,3.4-12.6,1.5-5.6,2.8-5.9,3.8-5.8-1-1.5-6.4-2-8,.6Z"/>
          <path class="st1" d="M33.1,23.3c1.4.8,3.3.7,4.8-2,0,0,0,0,0,0,0,0,0,0,0,0,0-.1.2-.3.2-.5,0-.1,0-.2.1-.3,0-.1.1-.3.2-.5,0-.3.2-.5.3-.8,0,0,0-.1,0-.2,0,0,0,0,0,0,0-.1,0-.2.1-.4,0-.2,0-.4.1-.5.2-.8.4-1.5.5-2.3-.5,1-1.5,2.1-2.8,2.4-1.7-6.3-2.1-11.4-3.7-13.9-1.6-2.6-7-2.1-8-.6,1-.1,2.4.2,3.8,5.8,3.1,11.6,2.1,9.6,3.4,12.6,0,.2.2.4.3.6,0,0,0,0,0,0,0,0,0,0,0,0,.2.4.5.9.8,1.2-.1-.1-.2-.3-.3-.5Z"/>
        </g>
      </g>
      <g>
        <path class="st6" d="M51.5,16.9c0-2.5-.5-5.1-1.8-7.4-3.8-6.6-12.3-8.9-19-5.1-4.6,2.6-7.1,7.5-6.9,12.5h1.6c-.2-4.4,2.1-8.7,6.1-11.1,5.8-3.4,13.4-1.4,16.7,4.5,1.2,2.1,1.7,4.4,1.6,6.6h1.6,0Z"/>
        <path class="st9" d="M36,17.2c0,0,0,.1,0,.2.5.9,1.6,1.1,2.4.7.4-.2.6-.5.7-.8h-3.3Z"/>
        <path class="st6" d="M40.4,14.8c.4.6.5,1.3.4,1.9h7c0-1.8-.4-3.7-1.4-5.4-.9-1.5-2.1-2.7-3.5-3.6l-3.5,6.1c.4.3.7.6,1,1h0,0Z"/>
        <path class="st9" d="M32.7,25.5c3,1.6,6.8,1.7,10-.1l-1.1-1.8h-7.8l-1.1,2h0Z"/>
        <path class="st6" d="M36,13.6l-3.5-6.1c-3.4,1.9-5.2,5.5-5.1,9.2h7c-.1-1.2.5-2.4,1.6-3.1h0Z"/>
        <path class="st14" d="M27,22.6c-1-1.8-1.6-3.7-1.6-5.7h-1.6c0,2.2.7,4.4,1.8,6.5,0,0,0,0,0,0h1.9c-.2-.3-.4-.6-.6-.9h0,0Z"/>
        <path class="st14" d="M51.5,16.9h-1.6c0,2.3-.9,4.6-2.2,6.6h1.9c1.2-2,1.8-4.3,1.9-6.6Z"/>
        <path class="st9" d="M47.7,23.5c-1,1.4-2.3,2.7-3.9,3.6-5.5,3.2-12.6,1.6-16.2-3.6h-1.9c3.8,6.6,12.3,8.8,18.9,5,2.2-1.2,3.8-3,5-5h-1.9Z"/>
        <path class="st14" d="M33.9,23.5h7.8l-2.4-4.2c-1,.5-2.1.6-3,.1l-2.4,4.1h0Z"/>
        <path class="st14" d="M36,17.2h3.3c.2-.4.2-.7,0-1.1h-3.5c0,.4,0,.7,0,1.1h0Z"/>
        <path class="st6" d="M36.7,14.9c-.4.3-.7.7-.9,1.2h3.5c0-.2,0-.3-.2-.5-.5-.9-1.6-1.1-2.4-.7h0Z"/>
        <path class="st4" d="M59.4,15.8v-6.2h2.4c1.4,0,2.5.7,2.5,2s-.5,1.5-1.3,1.7c.4.2.6.6,1,1.3l.6,1.2h-1.5l-.6-1.1c-.3-.6-.6-.9-1.3-.9h-.5v2h-1.3,0ZM60.8,10.8v1.8s1,0,1,0c.6,0,1.1-.3,1.1-.9s-.5-.9-1.1-.9h-1.1Z"/>
        <path class="st4" d="M65.8,13.5c0-1.3,1-2.4,2.4-2.4s2.3,1.1,2.3,2.3v.4h-3.4c0,.6.6,1,1.2,1s.9-.2,1.1-.7l1,.5c-.4.8-1.2,1.3-2.1,1.3-1.4,0-2.5-1-2.5-2.5h0ZM69.2,13.1c0-.5-.4-.8-1-.8s-1,.4-1,.8h2.1,0Z"/>
        <path class="st4" d="M72.1,13.5c0-1.4,1-2.4,2.4-2.4s.9.2,1.2.4v-2.4h1.3v4.4c0,1.4-1.1,2.4-2.5,2.4s-2.5-1.1-2.5-2.4h0ZM75.8,13.5c0-.6-.5-1.2-1.2-1.2s-1.2.5-1.2,1.2.5,1.2,1.2,1.2,1.2-.5,1.2-1.2Z"/>
        <path class="st4" d="M81.1,15.8v-5.4c0-.6.5-1,1-1s.7.1.9.5l2.5,4.2v-4.6h1.3v5.4c0,.6-.5,1-.9,1s-.7-.1-.9-.5l-2.5-4.3v4.6h-1.3,0Z"/>
        <path class="st4" d="M92.1,13.4v-2.1h1.3v2.3c0,1.3-.8,2.4-2.3,2.4s-2.3-1.1-2.3-2.4v-2.3h1.3v2.1c0,.7.3,1.3,1,1.3s1-.6,1-1.3h0Z"/>
        <path class="st4" d="M95,13.5c0-1.3,1.1-2.4,2.5-2.4.9,0,1.7.4,2.1,1.3l-1.1.6c-.2-.4-.6-.6-1-.6-.7,0-1.2.5-1.2,1.2s.5,1.2,1.2,1.2.8-.2,1-.6l1.1.6c-.4.9-1.2,1.3-2.1,1.3-1.4,0-2.5-1.1-2.5-2.4h0Z"/>
        <path class="st4" d="M102.6,9.1v6.7h-1.3v-6.7h1.3Z"/>
        <path class="st4" d="M104.4,13.5c0-1.3,1-2.4,2.4-2.4s2.3,1.1,2.3,2.3v.4h-3.4c0,.6.6,1,1.2,1s.9-.2,1.1-.7l1,.5c-.4.8-1.2,1.3-2.1,1.3-1.4,0-2.5-1-2.5-2.5h0ZM107.8,13.1c0-.5-.4-.8-1-.8s-1,.4-1,.8h2.1,0Z"/>
        <path class="st4" d="M110.5,13.5c0-1.3,1.1-2.4,2.5-2.4s2.5,1,2.5,2.4v2.3h-1.3v-.5c-.3.4-.8.7-1.5.7-1.3,0-2.3-1.1-2.3-2.4ZM114.2,13.5c0-.6-.5-1.2-1.2-1.2s-1.2.5-1.2,1.2.5,1.2,1.2,1.2,1.2-.5,1.2-1.2Z"/>
        <path class="st4" d="M117.4,15.8v-2.6c0-1.2.7-2.1,2-2.1s.6,0,.9.2v1.3c-.2-.1-.5-.2-.7-.2-.5,0-.8.3-.8.9v2.6h-1.3Z"/>
        <path class="st4" d="M60.3,26.6c0-.3.3-.4.5-.4s.4.1.5.4l.9,2.8h-.3l-.3-.9h-1.6s-.3.9-.3.9h-.3l.9-2.8h0ZM60.1,28.3h1.5l-.5-1.6c0-.1-.1-.2-.2-.2s-.2,0-.2.2l-.5,1.6h0ZM60.6,25.9l.5-.7h.3l-.5.7h-.3Z"/>
        <path class="st4" d="M63.7,28.7v-1.3h-.5v-.3h.5v-.6h.3v.6h.9v.3h-.9v1.3c0,.3.2.5.5.5s.3,0,.4-.2v.3c-.1,0-.3.1-.5.1-.5,0-.8-.3-.8-.8h0Z"/>
        <path class="st4" d="M66.2,28.3c0-.7.5-1.2,1.2-1.2s1.2.5,1.2,1.2-.5,1.2-1.2,1.2-1.2-.5-1.2-1.2ZM68.3,28.3c0-.5-.4-.9-.9-.9s-.9.4-.9.9.4.9.9.9.9-.4.9-.9Z"/>
        <path class="st4" d="M73.8,28.2v1.2h-.3v-1.2c0-.5-.3-.9-.7-.9s-.7.4-.7.9v1.2h-.3v-1.2c0-.5-.3-.9-.7-.9s-.7.4-.7.9v1.2h-.3v-1.2c0-.6.4-1.1,1-1.1s.8.3.9.7c.1-.4.4-.7.9-.7s1,.5,1,1.1h0Z"/>
        <path class="st4" d="M75.2,28.3c0-.7.5-1.2,1.2-1.2s1.2.5,1.2,1.2-.5,1.2-1.2,1.2-1.2-.5-1.2-1.2ZM77.3,28.3c0-.5-.4-.9-.9-.9s-.9.4-.9.9.4.9.9.9.9-.4.9-.9Z"/>
        <path class="st4" d="M78.9,29h.2c.1.1.4.2.6.2s.6-.1.6-.4c0-.6-1.4-.2-1.4-1s.4-.7.8-.7.7.2.8.4h-.2c-.1,0-.3-.2-.6-.2s-.5.1-.5.4c0,.6,1.4.2,1.4,1s-.4.7-.8.7-.7-.2-.9-.5Z"/>
        <path class="st4" d="M84.2,30.5v-2.2c0-.7.5-1.2,1.2-1.2s1.2.5,1.2,1.2-.5,1.2-1.2,1.2-.7-.2-.9-.5v1.5h-.3ZM86.3,28.3c0-.5-.4-.9-.9-.9s-.9.4-.9.9.4.9.9.9.9-.4.9-.9Z"/>
        <path class="st4" d="M87.8,28.3c0-.7.5-1.2,1.2-1.2s1.2.5,1.2,1.2v1.2h-.3v-.5c-.2.3-.5.6-1,.6-.7,0-1.2-.5-1.2-1.2h0ZM89.9,28.3c0-.5-.4-.9-.9-.9s-.9.4-.9.9.4.9.9.9.9-.4.9-.9Z"/>
        <path class="st4" d="M91.8,29.4v-1.4c0-.5.3-.9.8-.9s.3,0,.4,0v.3c-.1,0-.2-.1-.4-.1-.4,0-.6.3-.6.6v1.4h-.3Z"/>
        <path class="st4" d="M94,28.3c0-.7.5-1.2,1.2-1.2s1.2.5,1.2,1.2v1.2h-.3v-.5c-.2.3-.5.6-1,.6-.7,0-1.2-.5-1.2-1.2h0ZM96.1,28.3c0-.5-.4-.9-.9-.9s-.9.4-.9.9.4.9.9.9.9-.4.9-.9Z"/>
        <path class="st4" d="M100.7,26.1v3.4h-.3v-3.4h.3Z"/>
        <path class="st4" d="M102.2,28.3c0-.7.5-1.2,1.2-1.2s1.2.5,1.2,1.2v1.2h-.3v-.5c-.2.3-.5.6-1,.6-.7,0-1.2-.5-1.2-1.2h0ZM104.3,28.3c0-.5-.4-.9-.9-.9s-.9.4-.9.9.4.9.9.9.9-.4.9-.9Z"/>
        <path class="st4" d="M108.9,29l-.8-2.8h.3l.8,2.7c0,.2.1.2.3.2s.2,0,.3-.2l.8-2.7h.3l-.8,2.8c0,.3-.3.5-.5.5s-.5-.2-.6-.5Z"/>
        <path class="st4" d="M112.2,26.4c0-.1,0-.2.2-.2s.2,0,.2.2,0,.2-.2.2-.2,0-.2-.2ZM112.6,27.1v2.3h-.3v-2.3h.3Z"/>
        <path class="st4" d="M114,28.3c0-.7.5-1.2,1.2-1.2s.7.2.9.5v-1.5h.3v2.2c0,.7-.5,1.2-1.2,1.2s-1.2-.5-1.2-1.2h0ZM116.2,28.3c0-.5-.4-.9-.9-.9s-.9.4-.9.9.4.9.9.9.9-.4.9-.9Z"/>
        <path class="st4" d="M117.8,28.3c0-.7.5-1.2,1.2-1.2s1.2.5,1.2,1.2v1.2h-.3v-.5c-.2.3-.5.6-1,.6-.7,0-1.2-.5-1.2-1.2h0ZM120,28.3c0-.5-.4-.9-.9-.9s-.9.4-.9.9.4.9.9.9.9-.4.9-.9Z"/>
        <path class="st4" d="M59.4,20.5c0-1.7,1.4-3.1,3.1-3.1s2,.5,2.5,1.4l-.8.4c-.4-.6-1-1-1.7-1-1.2,0-2.1,1-2.1,2.3s.9,2.3,2.1,2.3,1.4-.4,1.7-1l.8.4c-.5.9-1.4,1.4-2.5,1.4-1.7,0-3.1-1.4-3.1-3.2h0Z"/>
        <path class="st4" d="M66.4,21.3c0-1.3,1-2.3,2.4-2.3s2.4,1.1,2.4,2.3-1,2.3-2.4,2.3-2.4-1.1-2.4-2.3ZM70.2,21.3c0-.8-.6-1.5-1.5-1.5s-1.5.7-1.5,1.5.6,1.5,1.5,1.5,1.5-.7,1.5-1.5Z"/>
        <path class="st4" d="M74.1,17v6.5h-.9v-6.5h.9Z"/>
        <path class="st4" d="M76.1,21.3c0-1.3,1-2.3,2.4-2.3s2.4,1.1,2.4,2.3-1,2.3-2.4,2.3-2.4-1.1-2.4-2.3ZM80,21.3c0-.8-.6-1.5-1.5-1.5s-1.5.7-1.5,1.5.6,1.5,1.5,1.5,1.5-.7,1.5-1.5Z"/>
        <path class="st4" d="M90.3,21.2v2.3h-.9v-2.2c0-.8-.4-1.5-1.2-1.5s-1.2.7-1.2,1.5v2.2h-.9v-2.2c0-.8-.4-1.5-1.2-1.5s-1.2.7-1.2,1.5v2.2h-.9v-2.3c0-1.2.7-2.2,2-2.2s1.5.5,1.8,1.1c.2-.7.9-1.1,1.7-1.1,1.3,0,2.1,1,2.1,2.2h0Z"/>
        <path class="st4" d="M92.5,21.3v-4.3h.9v2.6c.4-.4.9-.7,1.5-.7,1.3,0,2.3,1,2.3,2.3s-1,2.3-2.4,2.3-2.4-1-2.4-2.3h0ZM96.3,21.3c0-.8-.6-1.5-1.5-1.5s-1.5.7-1.5,1.5.6,1.5,1.5,1.5,1.5-.7,1.5-1.5Z"/>
        <path class="st4" d="M99.1,17.6c0-.3.3-.6.6-.6s.6.3.6.6-.3.6-.6.6-.6-.3-.6-.6ZM100.1,19.1v4.4h-.9v-4.4h.9Z"/>
        <path class="st4" d="M102.2,21.3c0-1.3,1-2.3,2.4-2.3s2.4,1,2.4,2.3v2.2h-.9v-.8c-.3.5-.9.9-1.6.9-1.3,0-2.2-1.1-2.2-2.3h0ZM106,21.3c0-.8-.6-1.5-1.5-1.5s-1.5.7-1.5,1.5.6,1.5,1.5,1.5,1.5-.7,1.5-1.5Z"/>
        <path class="st4" d="M110.2,21.4v2.1h-.9v-2.2c0-1.3.8-2.3,2.2-2.3s2.2,1,2.2,2.3v2.2h-.9v-2.1c0-.8-.5-1.5-1.3-1.5s-1.3.7-1.3,1.5Z"/>
        <path class="st4" d="M115.5,21.3c0-1.3,1-2.3,2.4-2.3s2.4,1,2.4,2.3v2.2h-.9v-.8c-.3.5-.9.9-1.6.9-1.3,0-2.2-1.1-2.2-2.3h0ZM119.4,21.3c0-.8-.6-1.5-1.5-1.5s-1.5.7-1.5,1.5.6,1.5,1.5,1.5,1.5-.7,1.5-1.5Z"/>
      </g>
    </g>
  </g>
</svg>